<?xml version="1.0" standalone="no"?>
<!DOCTYPE svg PUBLIC "-//W3C//DTD SVG 20010904//EN"
 "http://www.w3.org/TR/2001/REC-SVG-20010904/DTD/svg10.dtd">
<svg version="1.0" xmlns="http://www.w3.org/2000/svg"
 width="1080.000000pt" height="750.000000pt" viewBox="0 0 1080.000000 750.000000"
 preserveAspectRatio="xMidYMid meet">

<g transform="translate(0.000000,750.000000) scale(0.100000,-0.100000)"
fill="#000000" stroke="none">
<path d="M7265 5056 c-226 -53 -417 -176 -551 -356 -248 -332 -238 -789 25
-1114 151 -187 385 -313 624 -335 416 -39 816 221 949 618 41 124 52 199 45
335 -18 392 -286 727 -667 836 -97 28 -334 37 -425 16z m178 -112 c368 -84
697 -413 788 -789 38 -158 19 -366 -43 -489 -53 -105 -160 -204 -274 -257
-412 -189 -1004 116 -1207 622 -156 389 -23 774 311 899 110 42 278 47 425 14z"/>
<path d="M2400 5040 c0 -6 64 -11 163 -12 108 -2 155 -6 142 -12 -41 -19 -94
-68 -125 -115 -25 -41 -33 -65 -40 -138 -5 -48 -10 -381 -10 -739 l0 -651 -22
-33 c-15 -22 -39 -39 -68 -49 l-45 -16 46 -3 c40 -3 54 3 107 38 71 46 107 89
136 157 20 47 21 70 26 771 l5 724 37 34 c21 19 47 34 58 34 11 0 20 4 20 9 0
6 -91 10 -215 10 -136 1 -215 -2 -215 -9z"/>
<path d="M3595 5040 c-4 -6 53 -10 157 -12 l163 -3 -37 -19 c-48 -23 -104 -86
-132 -145 -21 -45 -21 -57 -26 -771 -5 -671 -6 -727 -23 -751 -17 -26 -56 -49
-82 -49 -8 0 -17 -4 -20 -10 -9 -15 81 -12 97 3 7 7 34 25 59 39 47 28 81 66
115 128 18 33 19 72 24 760 4 598 8 730 19 753 15 30 68 67 95 67 9 0 16 4 16
9 0 13 -417 14 -425 1z"/>
<path d="M4240 5040 c0 -6 64 -10 162 -10 l162 0 -45 -28 c-54 -35 -95 -82
-123 -142 -21 -44 -21 -61 -26 -767 -5 -713 -5 -722 -26 -750 -20 -26 -43 -42
-89 -60 -15 -6 -10 -8 24 -11 27 -2 49 2 60 11 9 8 31 22 48 31 47 24 97 77
123 131 19 39 24 72 30 193 9 164 23 217 78 301 66 99 175 164 300 177 l57 6
-33 -27 c-61 -50 -88 -141 -63 -208 6 -14 107 -134 225 -268 239 -268 243
-276 184 -323 l-33 -26 36 0 c31 0 44 8 86 53 42 45 52 61 58 104 10 74 -9
107 -142 256 -310 344 -303 336 -303 371 0 19 7 39 15 46 9 7 55 19 103 27
167 26 290 114 357 255 64 135 64 273 -1 405 -43 88 -108 157 -191 201 -109
57 -151 62 -615 62 -264 -1 -418 -4 -418 -10z m814 -26 c98 -34 196 -157 231
-289 18 -70 20 -192 4 -267 -26 -120 -112 -244 -202 -290 -23 -11 -84 -26
-144 -34 -117 -15 -191 -44 -261 -101 -49 -40 -122 -145 -122 -175 0 -11 -4
-16 -10 -13 -14 9 -14 1051 1 1096 6 19 25 46 42 62 l31 27 191 0 c150 0 202
-4 239 -16z"/>
<path d="M5860 5040 c0 -6 66 -10 162 -10 l162 0 -45 -28 c-51 -33 -90 -76
-122 -136 -22 -41 -22 -43 -27 -768 -5 -718 -5 -727 -26 -755 -20 -26 -43 -42
-89 -60 -15 -6 -10 -8 24 -11 27 -2 49 2 60 11 9 8 30 21 46 30 45 23 105 87
129 137 21 44 21 58 26 771 l5 726 28 36 c19 25 38 38 62 43 78 14 13 22 -185
23 -126 0 -210 -4 -210 -9z"/>
<path d="M3381 3394 c-85 -60 -264 -92 -606 -109 l-260 -12 425 1 425 1 32 65
c45 91 43 96 -16 54z"/>
<path d="M3788 3273 c46 -2 118 -2 160 0 42 1 5 3 -83 3 -88 0 -123 -2 -77 -3z"/>
<path d="M4428 3273 c45 -2 119 -2 165 0 45 1 8 3 -83 3 -91 0 -128 -2 -82 -3z"/>
<path d="M5433 3273 c48 -2 126 -2 175 0 48 1 8 3 -88 3 -96 0 -136 -2 -87 -3z"/>
<path d="M6058 3273 c46 -2 118 -2 160 0 42 1 5 3 -83 3 -88 0 -123 -2 -77 -3z"/>
<path d="M3892 2625 c-17 -14 -33 -39 -37 -55 -7 -33 15 -84 44 -100 40 -21
131 -7 131 21 0 6 -10 3 -22 -5 -54 -38 -128 1 -128 66 0 68 59 105 120 75 32
-17 43 -4 11 13 -35 18 -87 12 -119 -15z"/>
<path d="M4315 2555 l0 -95 52 0 c28 0 55 5 58 11 5 7 -7 8 -40 3 l-47 -7 3
92 c3 76 1 91 -11 91 -12 0 -15 -17 -15 -95z"/>
<path d="M4723 2633 c-49 -44 -56 -97 -17 -142 56 -66 164 -25 164 63 0 75
-94 125 -147 79z m98 -22 c35 -35 38 -77 8 -115 -37 -47 -101 -29 -119 34 -11
38 0 72 32 94 32 22 45 20 79 -13z"/>
<path d="M5143 2643 c-26 -10 -12 -22 18 -16 l31 6 -4 -87 c-2 -71 0 -86 12
-86 12 0 15 16 15 82 l0 83 33 3 c17 2 32 6 32 10 0 8 -119 13 -137 5z"/>
<path d="M5560 2648 c-11 -134 -9 -188 5 -188 11 0 15 11 15 45 l0 45 51 0 51
0 -4 -45 c-2 -31 1 -45 9 -45 10 0 13 23 13 85 0 47 0 88 1 92 0 4 -4 9 -10
11 -5 2 -11 -16 -13 -40 -3 -36 -7 -44 -27 -46 -12 -2 -34 -1 -47 2 -20 5 -24
13 -24 46 0 22 -4 40 -10 40 -5 0 -10 -1 -10 -2z"/>
<path d="M5995 2555 c0 -78 3 -95 15 -95 12 0 15 17 15 95 0 78 -3 95 -15 95
-12 0 -15 -17 -15 -95z"/>
<path d="M6325 2555 c0 -65 4 -95 11 -95 8 0 11 17 9 48 -5 89 5 91 65 18 30
-36 58 -66 63 -66 4 0 7 36 7 79 0 44 3 86 6 95 4 10 1 16 -8 16 -11 0 -13
-15 -10 -70 2 -38 0 -70 -4 -70 -5 0 -36 31 -69 70 -33 38 -62 70 -65 70 -3 0
-5 -43 -5 -95z"/>
<path d="M6815 2641 c-32 -13 -55 -45 -62 -83 -4 -29 0 -40 23 -66 29 -30 84
-52 84 -32 0 5 -9 10 -19 10 -28 0 -61 47 -61 87 0 23 8 42 26 60 26 26 51 27
109 8 20 -7 20 -6 1 9 -21 17 -68 20 -101 7z"/>
<path d="M6906 2522 c5 -23 1 -33 -17 -46 -23 -16 -23 -16 -2 -16 11 0 26 6
32 14 15 18 11 68 -6 74 -9 2 -11 -5 -7 -26z"/>
</g>
</svg>
